<svg xmlns="http://www.w3.org/2000/svg" width="31.275" height="31.275" viewBox="0 0 31.275 31.275">
  <g id="alerta" transform="translate(-0.256 8.561) rotate(-21)">
    <g id="Layer_2" data-name="Layer 2" transform="translate(3.061 2.291)">
      <path id="Caminho_1584" data-name="Caminho 1584" d="M15.081,27.851A3.081,3.081,0,0,1,12,24.77a.77.77,0,0,1,.77-.77h4.621a.77.77,0,0,1,.77.77A3.081,3.081,0,0,1,15.081,27.851Zm-1.332-2.31a1.54,1.54,0,0,0,2.665,0Z" transform="translate(-5.839 -7.827)" fill="#fff"/>
      <path id="Caminho_1585" data-name="Caminho 1585" d="M16.851,6.081H13.77A.77.77,0,0,1,13,5.31a2.31,2.31,0,1,1,4.621,0A.77.77,0,0,1,16.851,6.081ZM15.31,4.54Z" transform="translate(-6.069 -3)" fill="#fff"/>
      <path id="Caminho_1586" data-name="Caminho 1586" d="M21.713,21.173H4.77A.77.77,0,0,1,4,20.4a5.391,5.391,0,0,1,2.31-4.428V11.931A6.931,6.931,0,0,1,13.2,5h.085a6.931,6.931,0,0,1,6.931,6.931v4.043A5.391,5.391,0,0,1,22.483,20.4h0A.77.77,0,0,1,21.713,21.173Zm-16.1-1.54H20.866a3.851,3.851,0,0,0-1.848-2.565.77.77,0,0,1-.385-.67V11.931a5.391,5.391,0,1,0-10.782,0V16.4a.77.77,0,0,1-.385.67,3.851,3.851,0,0,0-1.848,2.565Z" transform="translate(-4 -3.46)" fill="#fff"/>
    </g>
    <g id="frame" transform="translate(0.198 0.198)">
      <rect id="Retângulo_1644" data-name="Retângulo 1644" width="24.208" height="24.208" fill="none"/>
    </g>
  </g>
</svg>
