<svg id="filtro" xmlns="http://www.w3.org/2000/svg" width="25" height="18.768" viewBox="0 0 25 18.768">
  <path id="Caminho_1467" data-name="Caminho 1467" d="M1.781,7.907H8.74a3.119,3.119,0,0,0,6.047,0H25.219a.781.781,0,1,0,0-1.563H14.787a3.119,3.119,0,0,0-6.047,0H1.781a.781.781,0,0,0,0,1.563Zm9.982-2.353a1.572,1.572,0,1,1-1.572,1.572A1.573,1.573,0,0,1,11.764,5.554Z" transform="translate(-1 -3.991)" fill="#fff"/>
  <path id="Caminho_1468" data-name="Caminho 1468" d="M25.219,12.344H23.546a3.119,3.119,0,0,0-6.047,0H1.781a.781.781,0,0,0,0,1.563H17.5a3.119,3.119,0,0,0,6.047,0h1.673a.781.781,0,1,0,0-1.562Zm-4.7,2.353a1.572,1.572,0,1,1,1.572-1.572A1.573,1.573,0,0,1,20.522,14.7Z" transform="translate(-1 -3.741)" fill="#fff"/>
  <path id="Caminho_1469" data-name="Caminho 1469" d="M25.219,18.344H10.081a3.119,3.119,0,0,0-6.046,0H1.781a.781.781,0,0,0,0,1.563H4.035a3.119,3.119,0,0,0,6.046,0H25.219a.781.781,0,1,0,0-1.563ZM7.059,20.7a1.572,1.572,0,1,1,1.571-1.572A1.573,1.573,0,0,1,7.059,20.7Z" transform="translate(-1 -3.491)" fill="#fff"/>
</svg>
