<svg xmlns="http://www.w3.org/2000/svg" width="39" height="39" viewBox="0 0 39 39">
  <g id="Grupo_3795" data-name="Grupo 3795" transform="translate(-36 -144)">
    <circle id="Elipse_393" data-name="Elipse 393" cx="19.5" cy="19.5" r="19.5" transform="translate(36 144)" fill="#29b264"/>
    <g id="market" transform="translate(49.614 154.554)">
      <g id="Icon-Location">
        <path id="Fill-55" d="M-210.57-350.059l-.334-.408c-.223-.3-5.9-6.935-5.9-10.9a6.244,6.244,0,0,1,6.23-6.23,6.268,6.268,0,0,1,6.23,6.23c0,3.968-5.674,10.643-5.9,10.9l-.334.408Zm0-16.688a5.342,5.342,0,0,0-5.34,5.34c0,3.115,4.116,8.418,5.34,9.939,1.224-1.521,5.34-6.787,5.34-9.939a5.342,5.342,0,0,0-5.34-5.34Z" transform="translate(216.8 367.6)" fill="#fff"/>
        <path id="Fill-56" d="M-204.027-352.453a2.39,2.39,0,0,1-2.373-2.373,2.39,2.39,0,0,1,2.373-2.373,2.39,2.39,0,0,1,2.373,2.373,2.39,2.39,0,0,1-2.373,2.373Zm0-3.857a1.488,1.488,0,0,0-1.483,1.483,1.488,1.488,0,0,0,1.483,1.483,1.488,1.488,0,0,0,1.483-1.483,1.488,1.488,0,0,0-1.483-1.483Z" transform="translate(210.257 361.057)" fill="#fff"/>
      </g>
    </g>
  </g>
</svg>
